<?xml version="1.0" encoding="utf-8"?>
<!-- Generator: Adobe Illustrator 18.0.0, SVG Export Plug-In . SVG Version: 6.00 Build 0)  -->
<!DOCTYPE svg PUBLIC "-//W3C//DTD SVG 1.1//EN" "http://www.w3.org/Graphics/SVG/1.1/DTD/svg11.dtd">
<svg version="1.1" xmlns="http://www.w3.org/2000/svg" xmlns:xlink="http://www.w3.org/1999/xlink" x="0px" y="0px"
	 viewBox="0 0 208 15.8" enable-background="new 0 0 208 15.8" xml:space="preserve">
<g id="Layer_1">
</g>
<g id="Layer_3">
	<g>
		<path d="M3.5,3h6.9v1H7.5v9H6.3V4H3.5V3z"/>
		<path d="M19.9,3h1.2c0,0,0,0,0,0c0,0,0,0.1,0,0.1c0,0.1,0,0.1-0.1,0.2v3.9h3.9V3h1.2c0,0,0,0,0,0c0,0,0,0.1,0,0.1
			c0,0-0.1,0.1-0.1,0.2V13h-1.2V8.2H21V13h-1.2V3z"/>
		<path d="M35.9,3h6.1v1H37v3.3h4.2v1.1H37V12h5v1h-6.1V3z"/>
		<path d="M68.2,3H74v1h-4.6v3.1h3.7v1h-3.7V13h-1.2V3z"/>
		<path d="M83.9,3h2.9c1.2,0,2,0.3,2.5,0.8c0.5,0.5,0.8,1.2,0.8,2.1c0,0.3,0,0.6-0.1,0.9c-0.1,0.3-0.2,0.5-0.4,0.8
			C89.4,7.8,89.2,8,89,8.2c-0.3,0.2-0.5,0.3-0.8,0.4l2.3,4.4h-1.2L87,8.6H85V13h-1.2V3z M85,4.1v3.5H87c0.7,0,1.2-0.2,1.5-0.5
			C88.8,6.8,89,6.4,89,5.9c0-0.3,0-0.5-0.1-0.7c-0.1-0.2-0.2-0.4-0.4-0.6c-0.2-0.2-0.4-0.3-0.6-0.4c-0.3-0.1-0.6-0.1-0.9-0.1H85z"/>
		<path d="M99.9,3h6.1v1H101v3.3h4.2v1.1H101V12h5v1h-6.1V3z"/>
		<path d="M115.9,3h6.1v1H117v3.3h4.2v1.1H117V12h5v1h-6.1V3z"/>
		<path d="M147.9,3h3.2c0.6,0,1,0.1,1.4,0.2c0.4,0.1,0.7,0.3,1,0.6c0.3,0.3,0.4,0.6,0.6,0.9c0.1,0.3,0.2,0.7,0.2,1.1
			c0,0.4-0.1,0.7-0.2,1.1c-0.1,0.3-0.3,0.6-0.5,0.9c-0.2,0.2-0.5,0.4-0.9,0.6c-0.4,0.1-0.8,0.2-1.4,0.2h-2.1V13h-1.2V3z M149.1,4.1
			v3.5h2c0.7,0,1.2-0.2,1.5-0.5c0.3-0.3,0.5-0.7,0.5-1.3c0-0.2-0.1-0.5-0.2-0.7c-0.1-0.2-0.2-0.4-0.4-0.6c-0.2-0.2-0.4-0.3-0.6-0.4
			c-0.3-0.1-0.6-0.1-0.9-0.1H149.1z"/>
		<path d="M167.1,13.1c-0.5,0-1-0.1-1.5-0.4s-0.8-0.6-1.1-1.1c-0.3-0.5-0.6-1-0.7-1.6c-0.2-0.6-0.3-1.3-0.3-2.1
			c0-0.8,0.1-1.5,0.3-2.1s0.4-1.2,0.7-1.6c0.3-0.4,0.7-0.8,1.2-1c0.4-0.2,0.9-0.4,1.5-0.4c0.5,0,0.9,0.1,1.3,0.3s0.8,0.5,1.1,0.9
			s0.6,0.9,0.8,1.6c0.2,0.6,0.3,1.4,0.3,2.3c0,1-0.1,1.8-0.3,2.4c-0.2,0.7-0.5,1.2-0.8,1.6c-0.3,0.4-0.7,0.7-1.1,0.9
			C167.9,13.1,167.5,13.1,167.1,13.1z M165.4,11.1c0.5,0.6,1,0.9,1.7,0.9c0.3,0,0.6-0.1,0.8-0.2s0.5-0.3,0.8-0.6
			c0.2-0.3,0.4-0.7,0.5-1.2c0.1-0.5,0.2-1.2,0.2-2c0-0.8-0.1-1.4-0.2-1.9c-0.1-0.5-0.3-0.9-0.6-1.2c-0.2-0.3-0.5-0.5-0.7-0.6
			C167.6,4,167.4,4,167.1,4c-0.3,0-0.6,0-0.9,0.2s-0.5,0.3-0.8,0.6s-0.4,0.7-0.6,1.2c-0.2,0.5-0.2,1.1-0.2,1.9c0,0.7,0.1,1.4,0.2,2
			C165,10.4,165.2,10.8,165.4,11.1z"/>
		<path d="M186,4.2l-0.7,1c-0.1,0-0.1-0.1-0.1-0.1s0-0.1,0-0.2c-0.2-0.3-0.5-0.5-0.8-0.7C184,4,183.5,3.9,183,3.9
			c-0.5,0-0.9,0.1-1.2,0.4c-0.3,0.3-0.5,0.6-0.5,1c0,0.2,0,0.4,0.1,0.6c0.1,0.2,0.2,0.3,0.4,0.5c0.2,0.2,0.4,0.3,0.7,0.5
			c0.3,0.2,0.7,0.3,1.2,0.6c0.5,0.2,0.9,0.4,1.2,0.6c0.3,0.2,0.6,0.4,0.8,0.6s0.3,0.5,0.4,0.7c0.1,0.3,0.1,0.5,0.1,0.8
			c0,0.3-0.1,0.7-0.2,1s-0.3,0.7-0.6,0.9c-0.3,0.3-0.6,0.5-1,0.7c-0.4,0.2-0.9,0.3-1.5,0.3c-1.3,0-2.3-0.4-3.1-1.3l0.7-1.2
			c0.1,0,0.1,0.1,0.1,0.2s0,0.1,0,0.2c0.2,0.3,0.6,0.6,1,0.8s0.9,0.3,1.5,0.3c0.3,0,0.6-0.1,0.8-0.2c0.3-0.1,0.5-0.2,0.6-0.4
			c0.2-0.2,0.3-0.4,0.4-0.6c0.1-0.2,0.2-0.5,0.2-0.7c0-0.2,0-0.4-0.1-0.6c-0.1-0.2-0.2-0.3-0.3-0.5S184.3,9,184,8.8
			s-0.7-0.3-1.2-0.5c-0.5-0.2-1-0.4-1.3-0.6s-0.6-0.4-0.8-0.6c-0.2-0.2-0.4-0.4-0.5-0.7c-0.1-0.2-0.1-0.5-0.1-0.8
			c0-0.4,0.1-0.7,0.2-1c0.2-0.3,0.4-0.6,0.6-0.8c0.3-0.2,0.6-0.4,1-0.6c0.4-0.1,0.8-0.2,1.2-0.2c0.5,0,1.1,0.1,1.5,0.3
			C185.2,3.5,185.6,3.8,186,4.2z"/>
		<path d="M195.5,3h6.9v1h-2.9v9h-1.2V4h-2.8V3z"/>
	</g>
</g>
<g id="Layer_2">
</g>
</svg>
