<?xml version="1.0" encoding="utf-8"?>
<!-- Generator: Adobe Illustrator 18.0.0, SVG Export Plug-In . SVG Version: 6.00 Build 0)  -->
<!DOCTYPE svg PUBLIC "-//W3C//DTD SVG 1.1//EN" "http://www.w3.org/Graphics/SVG/1.1/DTD/svg11.dtd">
<svg version="1.1" id="Layer_1" xmlns="http://www.w3.org/2000/svg" xmlns:xlink="http://www.w3.org/1999/xlink" x="0px" y="0px"
	 viewBox="0 0 513 80.2" enable-background="new 0 0 513 80.2" xml:space="preserve">
<g>
	<path d="M43.4,9.8l-1.2,9.3H28.9l-5.3,43.2H11.9l5.3-43.2H3.7l1.2-9.3H43.4z"/>
	<path d="M83.9,62.2H72.1l2.7-22.3H55.9l-2.7,22.3H41.3l6.5-52.5h11.8l-2.7,22.1h18.9l2.7-22.1h11.8L83.9,62.2z"/>
	<path d="M128,18.8h-19.4L107,31.5h14.9l-1.2,8.7h-14.8l-1.6,13h19.5l-1.2,9H91.4l6.5-52.5h31.2L128,18.8z"/>
	<path d="M193.1,18.8h-19.4L172,32.6h16.2l-1.2,9h-16.1l-2.5,20.6h-11.8L163,9.8h31.2L193.1,18.8z"/>
	<path d="M207.5,42.6l-2.4,19.6h-11.7l6.4-52.5h15.9c3.2,0,6,0.3,8.2,1c2.3,0.7,4.1,1.6,5.6,2.8c1.4,1.2,2.5,2.6,3.1,4.3
		c0.7,1.6,1,3.4,1,5.3c0,1.9-0.3,3.8-0.8,5.5c-0.5,1.7-1.3,3.3-2.3,4.8c-1,1.5-2.2,2.7-3.6,3.9c-1.4,1.1-3.1,2-4.9,2.8
		c0.7,0.4,1.4,0.9,2,1.5c0.6,0.6,1.1,1.3,1.5,2.2l7.6,18.5h-10.6c-1,0-1.8-0.2-2.5-0.6c-0.7-0.4-1.1-0.9-1.4-1.7l-5.7-15.5
		c-0.3-0.7-0.6-1.1-1.1-1.4c-0.4-0.3-1.1-0.4-2-0.4H207.5z M210.5,18.5l-2,16h4.3c1.7,0,3.1-0.3,4.3-0.8c1.2-0.5,2.1-1.2,2.9-2.1
		c0.7-0.9,1.3-1.9,1.6-3c0.3-1.2,0.5-2.4,0.5-3.6c0-1-0.1-1.9-0.4-2.7c-0.3-0.8-0.7-1.5-1.3-2.1c-0.6-0.6-1.4-1-2.3-1.3
		c-0.9-0.3-2-0.5-3.3-0.5H210.5z"/>
	<path d="M274.2,18.8h-19.4l-1.6,12.7h14.9l-1.2,8.7h-14.8l-1.6,13h19.5l-1.2,9h-31.3l6.5-52.5h31.2L274.2,18.8z"/>
	<path d="M311.5,18.8h-19.4l-1.6,12.7h14.9l-1.2,8.7h-14.8l-1.6,13h19.5l-1.2,9h-31.3l6.5-52.5h31.2L311.5,18.8z"/>
	<path d="M353.8,44.5l-2.2,17.7H340l6.4-52.5h17.4c3.1,0,5.8,0.4,8,1.1c2.2,0.8,4,1.8,5.5,3.1c1.4,1.3,2.5,2.9,3.1,4.7
		c0.7,1.8,1,3.8,1,5.9c0,2.9-0.4,5.5-1.3,7.9c-0.9,2.4-2.2,4.5-4,6.3c-1.8,1.8-4.1,3.2-6.8,4.2c-2.8,1-6,1.5-9.8,1.5H353.8z
		 M357,18.5l-2.1,17.2h5.7c1.7,0,3.1-0.2,4.2-0.7c1.1-0.5,2.1-1.2,2.8-2.1c0.7-0.9,1.2-2,1.5-3.2c0.3-1.2,0.5-2.6,0.5-4.1
		c0-1-0.1-2-0.4-2.8c-0.3-0.9-0.7-1.6-1.3-2.2c-0.6-0.6-1.3-1.1-2.2-1.5c-0.9-0.3-1.9-0.5-3.1-0.5H357z"/>
	<path d="M433.7,32.6c0,2.8-0.3,5.5-1,8.1c-0.7,2.6-1.6,5-2.8,7.2c-1.2,2.2-2.7,4.3-4.4,6.1c-1.7,1.8-3.6,3.4-5.8,4.7
		c-2.1,1.3-4.5,2.3-6.9,3c-2.5,0.7-5.1,1.1-7.9,1.1c-3.5,0-6.6-0.6-9.3-1.8c-2.7-1.2-5.1-2.9-7-5c-1.9-2.1-3.4-4.6-4.4-7.4
		c-1-2.8-1.5-5.9-1.5-9.2c0-2.8,0.3-5.5,1-8.2c0.7-2.6,1.6-5,2.8-7.3c1.2-2.2,2.7-4.3,4.4-6.1c1.7-1.8,3.7-3.4,5.8-4.7
		c2.1-1.3,4.5-2.3,6.9-3s5.1-1.1,7.9-1.1c3.4,0,6.5,0.6,9.3,1.8c2.7,1.2,5.1,2.9,7,5c1.9,2.1,3.4,4.6,4.4,7.5
		C433.2,26.3,433.7,29.4,433.7,32.6z M421.7,32.9c0-2.2-0.3-4.1-0.8-5.9s-1.3-3.3-2.3-4.5c-1-1.3-2.2-2.2-3.7-2.9s-3.1-1-4.9-1
		c-2.4,0-4.5,0.5-6.4,1.5c-1.9,1-3.5,2.4-4.8,4.2s-2.4,4-3.1,6.5c-0.7,2.5-1.1,5.3-1.1,8.4c0,2.2,0.3,4.1,0.8,5.9
		c0.5,1.8,1.2,3.3,2.2,4.5c1,1.2,2.2,2.2,3.6,2.9s3.1,1,4.9,1c2.4,0,4.6-0.5,6.5-1.5c1.9-1,3.5-2.4,4.9-4.2s2.4-4,3.1-6.5
		C421.3,38.8,421.7,36,421.7,32.9z"/>
	<path d="M467.5,20.3c-0.4,0.6-0.8,1-1.2,1.3c-0.4,0.3-0.9,0.4-1.5,0.4c-0.6,0-1.1-0.2-1.7-0.5c-0.6-0.4-1.2-0.8-1.9-1.2
		c-0.7-0.4-1.5-0.8-2.4-1.2c-0.9-0.4-1.9-0.5-3.1-0.5c-1.1,0-2.1,0.2-2.9,0.5c-0.8,0.3-1.5,0.7-2.1,1.3c-0.6,0.6-1,1.2-1.2,1.9
		c-0.3,0.7-0.4,1.6-0.4,2.4c0,1,0.3,1.8,0.8,2.4s1.3,1.2,2.2,1.7c0.9,0.5,1.9,0.9,3,1.4c1.1,0.4,2.3,0.9,3.5,1.3s2.4,1,3.5,1.7
		c1.1,0.6,2.2,1.4,3.1,2.3c0.9,0.9,1.6,2.1,2.2,3.4c0.5,1.3,0.8,2.9,0.8,4.8c0,2.6-0.5,5.1-1.4,7.5c-0.9,2.3-2.2,4.4-3.9,6.1
		c-1.7,1.7-3.8,3.1-6.2,4.1c-2.4,1-5.2,1.5-8.2,1.5c-1.5,0-3-0.2-4.6-0.5c-1.5-0.3-3-0.8-4.4-1.4c-1.4-0.6-2.7-1.3-3.9-2.2
		c-1.2-0.8-2.2-1.8-3.1-2.8l4.2-5.5c0.3-0.4,0.7-0.7,1.2-1c0.5-0.3,1-0.4,1.5-0.4c0.7,0,1.3,0.2,2,0.7c0.6,0.5,1.3,1,2.1,1.5
		c0.8,0.6,1.7,1.1,2.7,1.5c1,0.5,2.3,0.7,3.8,0.7c2.2,0,3.9-0.6,5.1-1.8s1.8-2.9,1.8-5.3c0-1.1-0.3-2-0.8-2.7
		c-0.5-0.7-1.2-1.3-2.1-1.8c-0.9-0.5-1.9-0.9-3-1.3c-1.1-0.4-2.3-0.8-3.5-1.2c-1.2-0.4-2.3-0.9-3.5-1.5c-1.1-0.6-2.1-1.4-3-2.3
		c-0.9-0.9-1.6-2.1-2.1-3.5c-0.5-1.4-0.8-3.1-0.8-5.1c0-2.3,0.4-4.6,1.3-6.7c0.9-2.1,2.1-4,3.8-5.7c1.6-1.7,3.6-3,5.9-4
		c2.3-1,4.9-1.5,7.8-1.5c1.5,0,2.9,0.2,4.3,0.5c1.4,0.3,2.7,0.7,3.9,1.3c1.2,0.6,2.3,1.2,3.3,2c1,0.8,1.9,1.6,2.6,2.5L467.5,20.3z"
		/>
	<path d="M513,9.8l-1.2,9.3h-13.3l-5.3,43.2h-11.7l5.3-43.2h-13.4l1.2-9.3H513z"/>
</g>
</svg>
