<?xml version="1.0" encoding="utf-8"?>
<!-- Generator: Adobe Illustrator 18.0.0, SVG Export Plug-In . SVG Version: 6.00 Build 0)  -->
<!DOCTYPE svg PUBLIC "-//W3C//DTD SVG 1.1//EN" "http://www.w3.org/Graphics/SVG/1.1/DTD/svg11.dtd">
<svg version="1.1" xmlns="http://www.w3.org/2000/svg" xmlns:xlink="http://www.w3.org/1999/xlink" x="0px" y="0px"
	 viewBox="0 0 64 57.8" enable-background="new 0 0 64 57.8" xml:space="preserve">
<g id="Layer_1">
</g>
<g id="Layer_3">
	<g>
		<path d="M4.5,3h6.9v1H8.5v9H7.3V4H4.5V3z"/>
		<path d="M20.9,3h1.2c0,0,0,0,0,0c0,0,0,0.1,0,0.1c0,0.1,0,0.1-0.1,0.2v3.9h3.9V3h1.2c0,0,0,0,0,0c0,0,0,0.1,0,0.1
			c0,0-0.1,0.1-0.1,0.2V13h-1.2V8.2H22V13h-1.2V3z"/>
		<path d="M36.9,3h6.1v1H38v3.3h4.2v1.1H38V12h5v1h-6.1V3z"/>
		<path d="M5.2,24H11v1H6.4v3.1h3.7v1H6.4V34H5.2V24z"/>
		<path d="M20.9,24h2.9c1.2,0,2,0.3,2.5,0.8c0.5,0.5,0.8,1.2,0.8,2.1c0,0.3,0,0.6-0.1,0.9c-0.1,0.3-0.2,0.5-0.4,0.8
			c-0.2,0.2-0.4,0.5-0.6,0.6c-0.3,0.2-0.5,0.3-0.8,0.4l2.3,4.4h-1.2L24,29.6H22V34h-1.2V24z M22,25.1v3.5H24c0.7,0,1.2-0.2,1.5-0.5
			c0.3-0.3,0.5-0.7,0.5-1.3c0-0.3,0-0.5-0.1-0.7c-0.1-0.2-0.2-0.4-0.4-0.6c-0.2-0.2-0.4-0.3-0.6-0.4c-0.3-0.1-0.6-0.1-0.9-0.1H22z"
			/>
		<path d="M36.9,24h6.1v1H38v3.3h4.2v1.1H38V33h5v1h-6.1V24z"/>
		<path d="M52.9,24h6.1v1H54v3.3h4.2v1.1H54V33h5v1h-6.1V24z"/>
		<path d="M4.9,45h3.2c0.6,0,1,0.1,1.4,0.2s0.7,0.3,1,0.6c0.3,0.3,0.4,0.6,0.6,0.9c0.1,0.3,0.2,0.7,0.2,1.1c0,0.4-0.1,0.7-0.2,1.1
			c-0.1,0.3-0.3,0.6-0.5,0.9c-0.2,0.2-0.5,0.4-0.9,0.6c-0.4,0.1-0.8,0.2-1.4,0.2H6.1V55H4.9V45z M6.1,46.1v3.5h2
			c0.7,0,1.2-0.2,1.5-0.5c0.3-0.3,0.5-0.7,0.5-1.3c0-0.2-0.1-0.5-0.2-0.7c-0.1-0.2-0.2-0.4-0.4-0.6c-0.2-0.2-0.4-0.3-0.6-0.4
			c-0.3-0.1-0.6-0.1-0.9-0.1H6.1z"/>
		<path d="M24.1,55.1c-0.5,0-1-0.1-1.5-0.4c-0.4-0.3-0.8-0.6-1.1-1.1c-0.3-0.5-0.6-1-0.7-1.6s-0.3-1.3-0.3-2.1
			c0-0.8,0.1-1.5,0.3-2.1c0.2-0.6,0.4-1.2,0.7-1.6c0.3-0.4,0.7-0.8,1.2-1c0.4-0.2,0.9-0.4,1.5-0.4c0.5,0,0.9,0.1,1.3,0.3
			c0.4,0.2,0.8,0.5,1.1,0.9s0.6,0.9,0.8,1.6c0.2,0.6,0.3,1.4,0.3,2.3c0,1-0.1,1.8-0.3,2.4c-0.2,0.7-0.5,1.2-0.8,1.6
			c-0.3,0.4-0.7,0.7-1.1,0.9S24.5,55.1,24.1,55.1z M22.4,53.1c0.5,0.6,1,0.9,1.7,0.9c0.3,0,0.6-0.1,0.8-0.2c0.3-0.1,0.5-0.3,0.8-0.6
			c0.2-0.3,0.4-0.7,0.5-1.2c0.1-0.5,0.2-1.2,0.2-2c0-0.8-0.1-1.4-0.2-1.9c-0.1-0.5-0.3-0.9-0.6-1.2c-0.2-0.3-0.5-0.5-0.7-0.6
			C24.6,46,24.4,46,24.1,46c-0.3,0-0.6,0-0.9,0.2s-0.5,0.3-0.8,0.6c-0.2,0.3-0.4,0.7-0.6,1.2c-0.2,0.5-0.2,1.1-0.2,1.9
			c0,0.7,0.1,1.4,0.2,2S22.2,52.8,22.4,53.1z"/>
		<path d="M43,46.2l-0.7,1c-0.1,0-0.1-0.1-0.1-0.1c0-0.1,0-0.1,0-0.2c-0.2-0.3-0.5-0.5-0.8-0.7C41,46,40.5,45.9,40,45.9
			c-0.5,0-0.9,0.1-1.2,0.4c-0.3,0.3-0.5,0.6-0.5,1c0,0.2,0,0.4,0.1,0.6c0.1,0.2,0.2,0.3,0.4,0.5c0.2,0.2,0.4,0.3,0.7,0.5
			c0.3,0.2,0.7,0.3,1.2,0.6c0.5,0.2,0.9,0.4,1.2,0.6c0.3,0.2,0.6,0.4,0.8,0.6c0.2,0.2,0.3,0.5,0.4,0.7c0.1,0.3,0.1,0.5,0.1,0.8
			c0,0.3-0.1,0.7-0.2,1c-0.1,0.3-0.3,0.7-0.6,0.9c-0.3,0.3-0.6,0.5-1,0.7c-0.4,0.2-0.9,0.3-1.5,0.3c-1.3,0-2.3-0.4-3.1-1.3l0.7-1.2
			c0.1,0,0.1,0.1,0.1,0.2s0,0.1,0,0.2c0.2,0.3,0.6,0.6,1,0.8s0.9,0.3,1.5,0.3c0.3,0,0.6-0.1,0.8-0.2c0.3-0.1,0.5-0.2,0.6-0.4
			c0.2-0.2,0.3-0.4,0.4-0.6c0.1-0.2,0.2-0.5,0.2-0.7c0-0.2,0-0.4-0.1-0.6c-0.1-0.2-0.2-0.3-0.3-0.5S41.3,51,41,50.8
			c-0.3-0.1-0.7-0.3-1.2-0.5c-0.5-0.2-1-0.4-1.3-0.6c-0.3-0.2-0.6-0.4-0.8-0.6c-0.2-0.2-0.4-0.4-0.5-0.7c-0.1-0.2-0.1-0.5-0.1-0.8
			c0-0.4,0.1-0.7,0.2-1c0.2-0.3,0.4-0.6,0.6-0.8c0.3-0.2,0.6-0.4,1-0.6c0.4-0.1,0.8-0.2,1.2-0.2c0.5,0,1.1,0.1,1.5,0.3
			C42.2,45.5,42.6,45.8,43,46.2z"/>
		<path d="M52.5,45h6.9v1h-2.9v9h-1.2v-9h-2.8V45z"/>
	</g>
</g>
<g id="Layer_2">
</g>
</svg>
